<?xml version="1.0" encoding="UTF-8" standalone="no"?>
<!-- Created with Inkscape (http://www.inkscape.org/) -->

<svg
   xmlns:dc="http://purl.org/dc/elements/1.1/"
   xmlns:cc="http://creativecommons.org/ns#"
   xmlns:rdf="http://www.w3.org/1999/02/22-rdf-syntax-ns#"
   xmlns:svg="http://www.w3.org/2000/svg"
   xmlns="http://www.w3.org/2000/svg"
   xmlns:sodipodi="http://sodipodi.sourceforge.net/DTD/sodipodi-0.dtd"
   xmlns:inkscape="http://www.inkscape.org/namespaces/inkscape"
   width="336"
   height="270"
   id="svg2"
   inkscape:label="Pozadí"
   version="1.1"
   inkscape:version="0.47 r22583"
   sodipodi:docname="scheme.svg">
  <defs
     id="defs3">
    <marker
       inkscape:stockid="TriangleInL"
       orient="auto"
       refY="0"
       refX="0"
       id="TriangleInL"
       style="overflow:visible">
      <path
         id="path3842"
         d="m 5.77,0 -8.65,5 0,-10 8.65,5 z"
         style="fill-rule:evenodd;stroke:#000000;stroke-width:1pt;marker-start:none"
         transform="scale(-0.8,-0.8)" />
    </marker>
    <marker
       inkscape:stockid="TriangleOutL"
       orient="auto"
       refY="0"
       refX="0"
       id="TriangleOutL"
       style="overflow:visible">
      <path
         id="path3851"
         d="m 5.77,0 -8.65,5 0,-10 8.65,5 z"
         style="fill-rule:evenodd;stroke:#000000;stroke-width:1pt;marker-start:none"
         transform="scale(0.8,0.8)" />
    </marker>
    <marker
       inkscape:stockid="Arrow1Lstart"
       orient="auto"
       refY="0"
       refX="0"
       id="Arrow1Lstart"
       style="overflow:visible">
      <path
         id="path3708"
         d="M 0,0 5,-5 -12.5,0 5,5 0,0 z"
         style="fill-rule:evenodd;stroke:#000000;stroke-width:1pt;marker-start:none"
         transform="matrix(0.8,0,0,0.8,10,0)" />
    </marker>
    <marker
       inkscape:stockid="Arrow2Lstart"
       orient="auto"
       refY="0"
       refX="0"
       id="Arrow2Lstart"
       style="overflow:visible">
      <path
         id="path3726"
         style="font-size:12px;fill-rule:evenodd;stroke-width:0.625;stroke-linejoin:round"
         d="M 8.7185878,4.0337352 -2.2072895,0.01601326 8.7185884,-4.0017078 c -1.7454984,2.3720609 -1.7354408,5.6174519 -6e-7,8.035443 z"
         transform="matrix(1.1,0,0,1.1,1.1,0)" />
    </marker>
    <inkscape:perspective
       sodipodi:type="inkscape:persp3d"
       inkscape:vp_x="0 : 526.18109 : 1"
       inkscape:vp_y="0 : 1000 : 0"
       inkscape:vp_z="744.09448 : 526.18109 : 1"
       inkscape:persp3d-origin="372.04724 : 350.78739 : 1"
       id="perspective9" />
  </defs>
  <sodipodi:namedview
     id="base"
     pagecolor="#ffffff"
     bordercolor="#666666"
     borderopacity="1.0"
     inkscape:pageopacity="0.0"
     inkscape:pageshadow="2"
     inkscape:zoom="1.4"
     inkscape:cx="130.30215"
     inkscape:cy="121.97256"
     inkscape:document-units="px"
     inkscape:current-layer="layer1"
     showgrid="false"
     inkscape:window-width="1280"
     inkscape:window-height="936"
     inkscape:window-x="-8"
     inkscape:window-y="-8"
     inkscape:window-maximized="1" />
  <metadata
     id="metadata6">
    <rdf:RDF>
      <cc:Work
         rdf:about="">
        <dc:format>image/svg+xml</dc:format>
        <dc:type
           rdf:resource="http://purl.org/dc/dcmitype/StillImage" />
        <dc:title></dc:title>
      </cc:Work>
    </rdf:RDF>
  </metadata>
  <g
     inkscape:label="Vrstva 1"
     inkscape:groupmode="layer"
     id="layer1"
     transform="translate(0,-782.36218)">
    <rect
       style="fill:#c6e9af;fill-opacity:1;fill-rule:evenodd;stroke:#17280b;stroke-width:1.74912596;stroke-miterlimit:4;stroke-opacity:1;stroke-dasharray:none;stroke-dashoffset:0"
       id="rect3607"
       width="138.48788"
       height="29.587183"
       x="66.316429"
       y="884.03674" />
    <text
       xml:space="preserve"
       style="font-size:12px;font-style:normal;font-weight:normal;text-align:center;text-anchor:middle;fill:#000000;fill-opacity:1;stroke:none;font-family:Arial;-inkscape-font-specification:Arial"
       x="134.56441"
       y="903.56909"
       id="text3603"><tspan
         sodipodi:role="line"
         id="tspan3605"
         x="134.56441"
         y="903.56909">TM Core</tspan></text>
    <path
       style="fill:#ececec;stroke:#000000;stroke-width:1.20651197px;stroke-linecap:butt;stroke-linejoin:miter;stroke-opacity:1"
       d="m 66.707821,790.02385 0.11667,46.04599 c 16.7638,7.99367 33.527579,9.48316 50.291369,0 l 0,-46.04599 c -16.46842,-9.98954 -33.937939,-8.02309 -50.408069,0 z"
       id="path3619"
       sodipodi:nodetypes="ccccc" />
    <path
       sodipodi:type="arc"
       style="fill:#b3b3b3;fill-opacity:1;fill-rule:evenodd;stroke:#17280b;stroke-width:1.20000005;stroke-miterlimit:4;stroke-opacity:1;stroke-dasharray:none;stroke-dashoffset:0"
       id="path3611"
       sodipodi:cx="206.78572"
       sodipodi:cy="138.07646"
       sodipodi:rx="18.928572"
       sodipodi:ry="3.5714285"
       d="m 225.71429,138.07646 a 18.928572,3.5714285 0 1 1 -37.85714,0 18.928572,3.5714285 0 1 1 37.85714,0 z"
       transform="matrix(1.3187331,0,0,1.8914242,-180.78329,529.06158)" />
    <rect
       y="953.96759"
       x="66.316429"
       height="29.587183"
       width="138.48788"
       id="rect3621"
       style="fill:#ffeeaa;fill-opacity:1;fill-rule:evenodd;stroke:#17280b;stroke-width:1.74912596;stroke-miterlimit:4;stroke-opacity:1;stroke-dasharray:none;stroke-dashoffset:0" />
    <text
       id="text3623"
       y="973.56909"
       x="134.56441"
       style="font-size:12px;font-style:normal;font-weight:normal;text-align:center;text-anchor:middle;fill:#000000;fill-opacity:1;stroke:none;font-family:Arial;-inkscape-font-specification:Arial"
       xml:space="preserve"><tspan
         y="973.56909"
         x="134.56441"
         id="tspan3625"
         sodipodi:role="line">User Space</tspan></text>
    <rect
       style="fill:#afc6e9;fill-opacity:1;fill-rule:evenodd;stroke:#17280b;stroke-width:1.74912596;stroke-miterlimit:4;stroke-opacity:1;stroke-dasharray:none;stroke-dashoffset:0"
       id="rect3627"
       width="138.48788"
       height="29.587183"
       x="66.316429"
       y="1021.9005" />
    <text
       xml:space="preserve"
       style="font-size:12px;font-style:normal;font-weight:normal;text-align:center;text-anchor:middle;fill:#000000;fill-opacity:1;stroke:none;font-family:Arial;-inkscape-font-specification:Arial"
       x="134.56441"
       y="1041.5691"
       id="text3629"><tspan
         sodipodi:role="line"
         id="tspan3631"
         x="134.56441"
         y="1041.5691">Web Application</tspan></text>
    <text
       xml:space="preserve"
       style="font-size:8.98291397px;font-style:normal;font-weight:normal;text-align:center;text-anchor:middle;fill:#000000;fill-opacity:1;stroke:none;font-family:Arial;-inkscape-font-specification:Arial"
       x="91.044228"
       y="814.53625"
       id="text3633"><tspan
         sodipodi:role="line"
         id="tspan3635"
         x="91.044228"
         y="814.53625">Translation</tspan><tspan
         sodipodi:role="line"
         x="91.044228"
         y="825.76489"
         id="tspan3649">memory</tspan></text>
    <path
       sodipodi:type="star"
       style="fill:#ececec;fill-opacity:1;fill-rule:evenodd;stroke:#17280b;stroke-width:1.20000005;stroke-miterlimit:4;stroke-opacity:1;stroke-dasharray:none;stroke-dashoffset:0"
       id="path3637"
       sodipodi:sides="11"
       sodipodi:cx="42.426407"
       sodipodi:cy="138.17413"
       sodipodi:r1="21.309187"
       sodipodi:r2="26.307638"
       sodipodi:arg1="0.057628427"
       sodipodi:arg2="0.34322776"
       inkscape:flatsided="false"
       inkscape:rounded="0"
       inkscape:randomized="0"
       d="m 63.700219,139.40147 3.499389,7.62593 -7.540079,3.68072 -1.179016,8.30726 -8.333069,-0.98005 -5.483091,6.35108 -6.480368,-5.32967 -8.046325,2.37849 -2.570196,-7.98716 -8.054906,-2.34926 2.155995,-8.10877 -5.506112,-6.33114 6.197673,-5.65591 -1.209167,-8.30292 8.271634,-1.40735 3.471681,-7.63858 7.719409,3.28805 7.050294,-4.54905 4.716326,6.93951 8.390489,-0.0152 0.215844,8.38772 7.066763,4.52343 -4.353168,7.1729 z"
       transform="matrix(0.92828375,0,0,0.55428052,-7.6440885,779.46073)" />
    <text
       xml:space="preserve"
       style="font-size:7.32113457px;font-style:normal;font-weight:normal;text-align:center;text-anchor:middle;fill:#000000;fill-opacity:1;stroke:none;font-family:Arial;-inkscape-font-specification:Arial"
       x="31.638296"
       y="854.9574"
       id="text3639"><tspan
         sodipodi:role="line"
         id="tspan3641"
         x="31.638296"
         y="854.9574">IMDb.com</tspan><tspan
         sodipodi:role="line"
         x="31.638296"
         y="864.10883"
         id="tspan3643">API</tspan></text>
    <path
       sodipodi:nodetypes="ccccc"
       id="path3645"
       d="m 0.47155148,923.32163 0.078,30.78645 c 11.20830952,5.34458 22.41660952,6.34046 33.62491952,0 l 0,-30.78645 c -11.01082,-6.67903 -22.69098,-5.36426 -33.70293952,0 z"
       style="fill:#ececec;stroke:#000000;stroke-width:0.80667651px;stroke-linecap:butt;stroke-linejoin:miter;stroke-opacity:1" />
    <path
       transform="matrix(0.8817078,0,0,1.2646103,-165.00155,748.84169)"
       d="m 225.71429,138.07646 a 18.928572,3.5714285 0 1 1 -37.85714,0 18.928572,3.5714285 0 1 1 37.85714,0 z"
       sodipodi:ry="3.5714285"
       sodipodi:rx="18.928572"
       sodipodi:cy="138.07646"
       sodipodi:cx="206.78572"
       id="path3647"
       style="fill:#b3b3b3;fill-opacity:1;fill-rule:evenodd;stroke:#17280b;stroke-width:1.20000005;stroke-miterlimit:4;stroke-opacity:1;stroke-dasharray:none;stroke-dashoffset:0"
       sodipodi:type="arc" />
    <path
       style="fill:#ececec;stroke:#000000;stroke-width:0.5349555px;stroke-linecap:butt;stroke-linejoin:miter;stroke-opacity:1"
       d="m 172.03928,810.57661 0.0507,20.8386 c 7.28228,3.61762 14.56456,4.29171 21.84684,0 l 0,-20.8386 c -7.15397,-4.52088 -14.74283,-3.63094 -21.89754,0 z"
       id="path3651"
       sodipodi:nodetypes="ccccc" />
    <path
       sodipodi:type="arc"
       style="fill:#b3b3b3;fill-opacity:1;fill-rule:evenodd;stroke:#17280b;stroke-width:1.20000005;stroke-miterlimit:4;stroke-opacity:1;stroke-dasharray:none;stroke-dashoffset:0"
       id="path3653"
       sodipodi:cx="206.78572"
       sodipodi:cy="138.07646"
       sodipodi:rx="18.928572"
       sodipodi:ry="3.5714285"
       d="m 225.71429,138.07646 a 18.928572,3.5714285 0 1 1 -37.85714,0 18.928572,3.5714285 0 1 1 37.85714,0 z"
       transform="matrix(0.57286475,0,0,0.85598422,64.527801,692.47534)" />
    <path
       sodipodi:nodetypes="ccccc"
       id="path3655"
       d="m 204.36417,792.89894 0.0507,20.8386 c 7.28228,3.61762 14.56456,4.29171 21.84684,0 l 0,-20.8386 c -7.15397,-4.52088 -14.74283,-3.63094 -21.89754,0 z"
       style="fill:#ececec;stroke:#000000;stroke-width:0.5349555px;stroke-linecap:butt;stroke-linejoin:miter;stroke-opacity:1" />
    <path
       transform="matrix(0.57286475,0,0,0.85598422,96.852691,674.79767)"
       d="m 225.71429,138.07646 a 18.928572,3.5714285 0 1 1 -37.85714,0 18.928572,3.5714285 0 1 1 37.85714,0 z"
       sodipodi:ry="3.5714285"
       sodipodi:rx="18.928572"
       sodipodi:cy="138.07646"
       sodipodi:cx="206.78572"
       id="path3657"
       style="fill:#b3b3b3;fill-opacity:1;fill-rule:evenodd;stroke:#17280b;stroke-width:1.20000005;stroke-miterlimit:4;stroke-opacity:1;stroke-dasharray:none;stroke-dashoffset:0"
       sodipodi:type="arc" />
    <path
       style="fill:#ececec;stroke:#000000;stroke-width:0.5349555px;stroke-linecap:butt;stroke-linejoin:miter;stroke-opacity:1"
       d="m 204.36417,792.89894 0.0507,20.8386 c 7.28228,3.61762 14.56456,4.29171 21.84684,0 l 0,-20.8386 c -7.15397,-4.52088 -14.74283,-3.63094 -21.89754,0 z"
       id="path3659"
       sodipodi:nodetypes="ccccc" />
    <path
       sodipodi:type="arc"
       style="fill:#b3b3b3;fill-opacity:1;fill-rule:evenodd;stroke:#17280b;stroke-width:1.20000005;stroke-miterlimit:4;stroke-opacity:1;stroke-dasharray:none;stroke-dashoffset:0"
       id="path3661"
       sodipodi:cx="206.78572"
       sodipodi:cy="138.07646"
       sodipodi:rx="18.928572"
       sodipodi:ry="3.5714285"
       d="m 225.71429,138.07646 a 18.928572,3.5714285 0 1 1 -37.85714,0 18.928572,3.5714285 0 1 1 37.85714,0 z"
       transform="matrix(0.57286475,0,0,0.85598422,96.852691,674.79767)" />
    <path
       style="fill:#ececec;stroke:#000000;stroke-width:0.5349555px;stroke-linecap:butt;stroke-linejoin:miter;stroke-opacity:1"
       d="m 204.36417,792.89894 0.0507,20.8386 c 7.28228,3.61762 14.56456,4.29171 21.84684,0 l 0,-20.8386 c -7.15397,-4.52088 -14.74283,-3.63094 -21.89754,0 z"
       id="path3663"
       sodipodi:nodetypes="ccccc" />
    <path
       sodipodi:type="arc"
       style="fill:#b3b3b3;fill-opacity:1;fill-rule:evenodd;stroke:#17280b;stroke-width:1.20000005;stroke-miterlimit:4;stroke-opacity:1;stroke-dasharray:none;stroke-dashoffset:0"
       id="path3665"
       sodipodi:cx="206.78572"
       sodipodi:cy="138.07646"
       sodipodi:rx="18.928572"
       sodipodi:ry="3.5714285"
       d="m 225.71429,138.07646 a 18.928572,3.5714285 0 1 1 -37.85714,0 18.928572,3.5714285 0 1 1 37.85714,0 z"
       transform="matrix(0.57286475,0,0,0.85598422,96.852691,674.79767)" />
    <path
       sodipodi:nodetypes="ccccc"
       id="path3667"
       d="m 204.36417,792.89894 0.0507,20.8386 c 7.28228,3.61762 14.56456,4.29171 21.84684,0 l 0,-20.8386 c -7.15397,-4.52088 -14.74283,-3.63094 -21.89754,0 z"
       style="fill:#ececec;stroke:#000000;stroke-width:0.5349555px;stroke-linecap:butt;stroke-linejoin:miter;stroke-opacity:1" />
    <path
       transform="matrix(0.57286475,0,0,0.85598422,96.852691,674.79767)"
       d="m 225.71429,138.07646 a 18.928572,3.5714285 0 1 1 -37.85714,0 18.928572,3.5714285 0 1 1 37.85714,0 z"
       sodipodi:ry="3.5714285"
       sodipodi:rx="18.928572"
       sodipodi:cy="138.07646"
       sodipodi:cx="206.78572"
       id="path3669"
       style="fill:#b3b3b3;fill-opacity:1;fill-rule:evenodd;stroke:#17280b;stroke-width:1.20000005;stroke-miterlimit:4;stroke-opacity:1;stroke-dasharray:none;stroke-dashoffset:0"
       sodipodi:type="arc" />
    <path
       style="fill:#ececec;stroke:#000000;stroke-width:0.5349555px;stroke-linecap:butt;stroke-linejoin:miter;stroke-opacity:1"
       d="m 200.82864,828.75936 0.0507,20.8386 c 7.28228,3.61762 14.56456,4.29171 21.84684,0 l 0,-20.8386 c -7.15397,-4.52088 -14.74283,-3.63094 -21.89754,0 z"
       id="path3671"
       sodipodi:nodetypes="ccccc" />
    <path
       sodipodi:type="arc"
       style="fill:#b3b3b3;fill-opacity:1;fill-rule:evenodd;stroke:#17280b;stroke-width:1.20000005;stroke-miterlimit:4;stroke-opacity:1;stroke-dasharray:none;stroke-dashoffset:0"
       id="path3673"
       sodipodi:cx="206.78572"
       sodipodi:cy="138.07646"
       sodipodi:rx="18.928572"
       sodipodi:ry="3.5714285"
       d="m 225.71429,138.07646 a 18.928572,3.5714285 0 1 1 -37.85714,0 18.928572,3.5714285 0 1 1 37.85714,0 z"
       transform="matrix(0.57286475,0,0,0.85598422,93.317161,710.65809)" />
    <path
       sodipodi:nodetypes="ccccc"
       id="path3675"
       d="m 200.82864,828.75936 0.0507,20.8386 c 7.28228,3.61762 14.56456,4.29171 21.84684,0 l 0,-20.8386 c -7.15397,-4.52088 -14.74283,-3.63094 -21.89754,0 z"
       style="fill:#ececec;stroke:#000000;stroke-width:0.5349555px;stroke-linecap:butt;stroke-linejoin:miter;stroke-opacity:1" />
    <path
       transform="matrix(0.57286475,0,0,0.85598422,93.317161,710.65809)"
       d="m 225.71429,138.07646 a 18.928572,3.5714285 0 1 1 -37.85714,0 18.928572,3.5714285 0 1 1 37.85714,0 z"
       sodipodi:ry="3.5714285"
       sodipodi:rx="18.928572"
       sodipodi:cy="138.07646"
       sodipodi:cx="206.78572"
       id="path3677"
       style="fill:#b3b3b3;fill-opacity:1;fill-rule:evenodd;stroke:#17280b;stroke-width:1.20000005;stroke-miterlimit:4;stroke-opacity:1;stroke-dasharray:none;stroke-dashoffset:0"
       sodipodi:type="arc" />
    <path
       sodipodi:nodetypes="ccccc"
       id="path3679"
       d="m 200.82864,828.75936 0.0507,20.8386 c 7.28228,3.61762 14.56456,4.29171 21.84684,0 l 0,-20.8386 c -7.15397,-4.52088 -14.74283,-3.63094 -21.89754,0 z"
       style="fill:#ececec;stroke:#000000;stroke-width:0.5349555px;stroke-linecap:butt;stroke-linejoin:miter;stroke-opacity:1" />
    <path
       transform="matrix(0.57286475,0,0,0.85598422,93.317161,710.65809)"
       d="m 225.71429,138.07646 a 18.928572,3.5714285 0 1 1 -37.85714,0 18.928572,3.5714285 0 1 1 37.85714,0 z"
       sodipodi:ry="3.5714285"
       sodipodi:rx="18.928572"
       sodipodi:cy="138.07646"
       sodipodi:cx="206.78572"
       id="path3681"
       style="fill:#b3b3b3;fill-opacity:1;fill-rule:evenodd;stroke:#17280b;stroke-width:1.20000005;stroke-miterlimit:4;stroke-opacity:1;stroke-dasharray:none;stroke-dashoffset:0"
       sodipodi:type="arc" />
    <path
       style="fill:#ececec;stroke:#000000;stroke-width:0.5349555px;stroke-linecap:butt;stroke-linejoin:miter;stroke-opacity:1"
       d="m 200.82864,828.75936 0.0507,20.8386 c 7.28228,3.61762 14.56456,4.29171 21.84684,0 l 0,-20.8386 c -7.15397,-4.52088 -14.74283,-3.63094 -21.89754,0 z"
       id="path3683"
       sodipodi:nodetypes="ccccc" />
    <path
       sodipodi:type="arc"
       style="fill:#b3b3b3;fill-opacity:1;fill-rule:evenodd;stroke:#17280b;stroke-width:1.20000005;stroke-miterlimit:4;stroke-opacity:1;stroke-dasharray:none;stroke-dashoffset:0"
       id="path3685"
       sodipodi:cx="206.78572"
       sodipodi:cy="138.07646"
       sodipodi:rx="18.928572"
       sodipodi:ry="3.5714285"
       d="m 225.71429,138.07646 a 18.928572,3.5714285 0 1 1 -37.85714,0 18.928572,3.5714285 0 1 1 37.85714,0 z"
       transform="matrix(0.57286475,0,0,0.85598422,93.317161,710.65809)" />
    <path
       sodipodi:nodetypes="ccccc"
       id="path3687"
       d="m 239.71952,786.83803 0.0507,20.8386 c 7.28228,3.61762 14.56456,4.29171 21.84684,0 l 0,-20.8386 c -7.15397,-4.52088 -14.74283,-3.63094 -21.89754,0 z"
       style="fill:#ececec;stroke:#000000;stroke-width:0.5349555px;stroke-linecap:butt;stroke-linejoin:miter;stroke-opacity:1" />
    <path
       transform="matrix(0.57286475,0,0,0.85598422,132.20804,668.73676)"
       d="m 225.71429,138.07646 a 18.928572,3.5714285 0 1 1 -37.85714,0 18.928572,3.5714285 0 1 1 37.85714,0 z"
       sodipodi:ry="3.5714285"
       sodipodi:rx="18.928572"
       sodipodi:cy="138.07646"
       sodipodi:cx="206.78572"
       id="path3689"
       style="fill:#b3b3b3;fill-opacity:1;fill-rule:evenodd;stroke:#17280b;stroke-width:1.20000005;stroke-miterlimit:4;stroke-opacity:1;stroke-dasharray:none;stroke-dashoffset:0"
       sodipodi:type="arc" />
    <path
       style="fill:#ececec;stroke:#000000;stroke-width:0.5349555px;stroke-linecap:butt;stroke-linejoin:miter;stroke-opacity:1"
       d="m 239.71952,786.83803 0.0507,20.8386 c 7.28228,3.61762 14.56456,4.29171 21.84684,0 l 0,-20.8386 c -7.15397,-4.52088 -14.74283,-3.63094 -21.89754,0 z"
       id="path3691"
       sodipodi:nodetypes="ccccc" />
    <path
       sodipodi:type="arc"
       style="fill:#b3b3b3;fill-opacity:1;fill-rule:evenodd;stroke:#17280b;stroke-width:1.20000005;stroke-miterlimit:4;stroke-opacity:1;stroke-dasharray:none;stroke-dashoffset:0"
       id="path3693"
       sodipodi:cx="206.78572"
       sodipodi:cy="138.07646"
       sodipodi:rx="18.928572"
       sodipodi:ry="3.5714285"
       d="m 225.71429,138.07646 a 18.928572,3.5714285 0 1 1 -37.85714,0 18.928572,3.5714285 0 1 1 37.85714,0 z"
       transform="matrix(0.57286475,0,0,0.85598422,132.20804,668.73676)" />
    <path
       style="fill:#ececec;stroke:#000000;stroke-width:0.5349555px;stroke-linecap:butt;stroke-linejoin:miter;stroke-opacity:1"
       d="m 239.71952,786.83803 0.0507,20.8386 c 7.28228,3.61762 14.56456,4.29171 21.84684,0 l 0,-20.8386 c -7.15397,-4.52088 -14.74283,-3.63094 -21.89754,0 z"
       id="path3695"
       sodipodi:nodetypes="ccccc" />
    <path
       sodipodi:type="arc"
       style="fill:#b3b3b3;fill-opacity:1;fill-rule:evenodd;stroke:#17280b;stroke-width:1.20000005;stroke-miterlimit:4;stroke-opacity:1;stroke-dasharray:none;stroke-dashoffset:0"
       id="path3697"
       sodipodi:cx="206.78572"
       sodipodi:cy="138.07646"
       sodipodi:rx="18.928572"
       sodipodi:ry="3.5714285"
       d="m 225.71429,138.07646 a 18.928572,3.5714285 0 1 1 -37.85714,0 18.928572,3.5714285 0 1 1 37.85714,0 z"
       transform="matrix(0.57286475,0,0,0.85598422,132.20804,668.73676)" />
    <path
       sodipodi:nodetypes="ccccc"
       id="path3699"
       d="m 239.71952,786.83803 0.0507,20.8386 c 7.28228,3.61762 14.56456,4.29171 21.84684,0 l 0,-20.8386 c -7.15397,-4.52088 -14.74283,-3.63094 -21.89754,0 z"
       style="fill:#ececec;stroke:#000000;stroke-width:0.5349555px;stroke-linecap:butt;stroke-linejoin:miter;stroke-opacity:1" />
    <path
       transform="matrix(0.57286475,0,0,0.85598422,132.20804,668.73676)"
       d="m 225.71429,138.07646 a 18.928572,3.5714285 0 1 1 -37.85714,0 18.928572,3.5714285 0 1 1 37.85714,0 z"
       sodipodi:ry="3.5714285"
       sodipodi:rx="18.928572"
       sodipodi:cy="138.07646"
       sodipodi:cx="206.78572"
       id="path3701"
       style="fill:#b3b3b3;fill-opacity:1;fill-rule:evenodd;stroke:#17280b;stroke-width:1.20000005;stroke-miterlimit:4;stroke-opacity:1;stroke-dasharray:none;stroke-dashoffset:0"
       sodipodi:type="arc" />
    <path
       style="fill:none;stroke:#000000;stroke-width:1px;stroke-linecap:butt;stroke-linejoin:miter;stroke-opacity:1;marker-start:none;marker-mid:none;marker-end:url(#TriangleOutL)"
       d="M 82.280141,882.86096 53.995871,865.68837"
       id="path3703" />
    <path
       style="fill:none;stroke:#000000;stroke-width:0.93143302px;stroke-linecap:butt;stroke-linejoin:miter;stroke-opacity:1;marker-end:url(#TriangleOutL)"
       d="M 121.20529,881.88509 103.29075,846.67587"
       id="path4901" />
    <path
       style="fill:none;stroke:#000000;stroke-width:1px;stroke-linecap:butt;stroke-linejoin:miter;stroke-opacity:1;marker-end:url(#TriangleOutL)"
       d="m 123.08979,984.88636 0,29.79954"
       id="path5093"
       sodipodi:nodetypes="cc" />
    <path
       sodipodi:nodetypes="cc"
       id="path5283"
       d="m 145.08979,1019.3019 0,-29.79954"
       style="fill:none;stroke:#000000;stroke-width:1px;stroke-linecap:butt;stroke-linejoin:miter;stroke-opacity:1;marker-end:url(#TriangleOutL)" />
    <text
       xml:space="preserve"
       style="font-size:12px;font-style:normal;font-weight:normal;text-align:start;text-anchor:start;fill:#000000;fill-opacity:1;stroke:none;font-family:Arial;-inkscape-font-specification:Arial"
       x="166.04158"
       y="999.59448"
       id="text5285"><tspan
         sodipodi:role="line"
         id="tspan5287"
         x="166.04158"
         y="999.59448">mutual</tspan><tspan
         sodipodi:role="line"
         x="166.04158"
         y="1014.5945"
         id="tspan5289">interaction</tspan></text>
    <path
       style="fill:none;stroke:#000000;stroke-width:1px;stroke-linecap:butt;stroke-linejoin:miter;stroke-opacity:1;marker-end:url(#TriangleOutL)"
       d="m 135.08979,950.8171 0,-29.7995"
       id="path5291"
       sodipodi:nodetypes="cc" />
    <path
       style="fill:none;stroke:#000000;stroke-width:1px;stroke-linecap:butt;stroke-linejoin:miter;stroke-opacity:1;marker-end:url(#TriangleOutL)"
       d="m 156.52635,880.33558 30.30458,-38.89087"
       id="path5293"
       sodipodi:nodetypes="cc" />
    <text
       xml:space="preserve"
       style="font-size:11px;font-style:normal;font-weight:normal;text-align:start;text-anchor:start;fill:#000000;fill-opacity:1;stroke:none;font-family:Arial;-inkscape-font-specification:Arial"
       x="238.34871"
       y="831.84827"
       id="text5483"><tspan
         sodipodi:role="line"
         id="tspan5485"
         x="238.34871"
         y="831.84827">machine translation,</tspan><tspan
         sodipodi:role="line"
         x="238.34871"
         y="845.59827"
         id="tspan5487">other translation</tspan><tspan
         sodipodi:role="line"
         x="238.34871"
         y="859.34827"
         id="tspan5489">memories</tspan></text>
    <text
       xml:space="preserve"
       style="font-size:7.25038242px;font-style:normal;font-weight:normal;text-align:center;text-anchor:middle;fill:#000000;fill-opacity:1;stroke:none;font-family:Arial;-inkscape-font-specification:Arial"
       x="23.756165"
       y="682.36676"
       id="text5491"
       transform="scale(0.7261535,1.3771193)"><tspan
         sodipodi:role="line"
         id="tspan5493"
         x="23.756165"
         y="682.36676">User Space</tspan><tspan
         sodipodi:role="line"
         x="23.756165"
         y="691.42975"
         id="tspan5495">database</tspan></text>
    <text
       xml:space="preserve"
       style="font-size:17.57020187px;font-style:normal;font-weight:normal;text-align:center;text-anchor:middle;fill:#000000;fill-opacity:1;stroke:none;font-family:Arial;-inkscape-font-specification:Arial"
       x="139.26714"
       y="863.11145"
       id="text5497"><tspan
         sodipodi:role="line"
         id="tspan5499"
         x="139.26714"
         y="863.11145">query</tspan></text>
    <text
       id="text7030"
       y="937.59448"
       x="126.04159"
       style="font-size:12px;font-style:normal;font-weight:normal;text-align:end;text-anchor:end;fill:#000000;fill-opacity:1;stroke:none;font-family:Arial;-inkscape-font-specification:Arial"
       xml:space="preserve"><tspan
         id="tspan7034"
         y="937.59448"
         x="126.04159"
         sodipodi:role="line">query</tspan></text>
    <path
       style="fill:none;stroke:#999999;stroke-width:1;stroke-linecap:butt;stroke-linejoin:miter;stroke-miterlimit:4;stroke-opacity:1;stroke-dasharray:2, 2;stroke-dashoffset:0;marker-mid:none;marker-end:url(#TriangleOutL)"
       d="m 197.08979,951.30186 0,-29.7995"
       id="path7036"
       sodipodi:nodetypes="cc" />
    <path
       style="fill:none;stroke:#999999;stroke-width:1;stroke-linecap:butt;stroke-linejoin:miter;stroke-miterlimit:4;stroke-opacity:1;stroke-dasharray:2, 2;stroke-dashoffset:0;marker-mid:none"
       d="m 197.21417,910.13508 0,-23.99112"
       id="path7230" />
    <path
       style="fill:none;stroke:#999999;stroke-width:1;stroke-linecap:butt;stroke-linejoin:miter;stroke-miterlimit:4;stroke-opacity:1;stroke-dasharray:2, 2;stroke-dashoffset:0;marker-start:none;marker-mid:none;marker-end:url(#TriangleOutL)"
       d="m 197.21417,881.34573 c -18.88092,-46.83699 -41.07694,-41.33485 -73.9565,-62.9052"
       id="path7232"
       sodipodi:nodetypes="cc" />
    <path
       style="fill:none;stroke:#000000;stroke-width:1px;stroke-linecap:butt;stroke-linejoin:miter;stroke-opacity:1;marker-start:url(#TriangleInL);marker-end:url(#TriangleOutL)"
       d="m 40.097341,936.26219 c 18.02693,-1.07664 34.04413,-0.82752 39.64285,12.5"
       id="path8186"
       sodipodi:nodetypes="cc" />
    <text
       xml:space="preserve"
       style="font-size:11px;font-style:normal;font-weight:normal;text-align:start;text-anchor:start;fill:#666666;fill-opacity:1;stroke:none;font-family:Arial;-inkscape-font-specification:Arial"
       x="214.61012"
       y="920.23657"
       id="text8568"><tspan
         sodipodi:role="line"
         id="tspan8570"
         x="214.61012"
         y="920.23657">providing feedback </tspan><tspan
         sodipodi:role="line"
         x="214.61012"
         y="933.98657"
         id="tspan8572">to the TM, adding new</tspan><tspan
         sodipodi:role="line"
         x="214.61012"
         y="947.73657"
         id="tspan8574">translations to TM</tspan></text>
  </g>
</svg>
